<?xml version="1.0" standalone="no"?>
<svg viewBox="60 40 120 200" xmlns="http://www.w3.org/2000/svg">
  <path fill="white" d="M34.9,-52.4C46.5,-39.7,57.8,-31.1,59.5,-20.6C61.3,-10,53.5,2.4,49.1,16C44.8,29.6,43.9,44.4,36.3,49.3C28.7,54.2,14.3,49.2,-1.5,51.3C-17.3,53.3,-34.6,62.4,-47.8,59.3C-61.1,56.2,-70.2,41,-68.5,26.9C-66.7,12.7,-54,-0.3,-48.7,-15.6C-43.4,-30.8,-45.5,-48.1,-38.6,-62.3C-31.7,-76.4,-15.8,-87.5,-2.1,-84.6C11.7,-81.8,23.4,-65.1,34.9,-52.4Z" transform="translate(100 100)" />
</svg>
